<?xml version="1.0" encoding="UTF-8" standalone="no"?>
<!-- Created with Inkscape (http://www.inkscape.org/) -->

<svg
   width="210mm"
   height="297mm"
   viewBox="0 0 210 297"
   version="1.1"
   id="svg1"
   xml:space="preserve"
   inkscape:version="1.4.2 (f4327f4, 2025-05-13)"
   sodipodi:docname="icon.svg"
   xmlns:inkscape="http://www.inkscape.org/namespaces/inkscape"
   xmlns:sodipodi="http://sodipodi.sourceforge.net/DTD/sodipodi-0.dtd"
   xmlns="http://www.w3.org/2000/svg"
   xmlns:svg="http://www.w3.org/2000/svg"><sodipodi:namedview
     id="namedview1"
     pagecolor="#ffffff"
     bordercolor="#000000"
     borderopacity="0.25"
     inkscape:showpageshadow="2"
     inkscape:pageopacity="0.0"
     inkscape:pagecheckerboard="0"
     inkscape:deskcolor="#d1d1d1"
     inkscape:document-units="mm"
     showguides="true"
     inkscape:zoom="0.5"
     inkscape:cx="-1236"
     inkscape:cy="631"
     inkscape:window-width="3840"
     inkscape:window-height="2089"
     inkscape:window-x="-8"
     inkscape:window-y="1135"
     inkscape:window-maximized="1"
     inkscape:current-layer="layer1"><sodipodi:guide
       position="91.821416,123.30449"
       orientation="0,-1"
       id="guide10"
       inkscape:locked="false" /><sodipodi:guide
       position="101.25862,272.76935"
       orientation="0,-1"
       id="guide11"
       inkscape:locked="false" /></sodipodi:namedview><defs
     id="defs1" /><g
     inkscape:label="Layer 1"
     inkscape:groupmode="layer"
     id="layer1"><path
       id="path28"
       style="fill:#e01313;stroke-width:0.3;fill-opacity:1"
       d="m 146.64531,63.665363 c 0,2.65688 -3.60523,7.801561 -11.97748,6.685859 -7.57133,-1.008968 -19.43889,-8.17414 -28.86757,-8.17414 -8.925165,0 -20.60189,7.512735 -27.47583,8.333268 -8.417726,1.004813 -11.120269,-4.853544 -11.120268,-7.638737 0,-5.05959 19.402771,-16.503386 39.257548,-16.503386 19.85478,0 40.1836,12.237546 40.1836,17.297136 z"
       sodipodi:nodetypes="sssssss" /><path
       style="fill:#c6dfd1;stroke:#000000;stroke-width:0.2;stroke-dasharray:none;stroke-opacity:1;fill-opacity:1"
       d="m 89.275171,146.389 h 42.224809 v 14.17691 H 90.043083 c -4.482488,0 -8.205334,-4.31886 -8.023283,-8.1194 0.150742,-3.14693 1.974802,-6.05751 7.255371,-6.05751 z"
       id="path27" /><path
       style="fill:#805302;stroke:#000000;stroke-width:0.2;stroke-dasharray:none;stroke-opacity:1;fill-opacity:1"
       d="m 90.043083,92.91991 h 41.456897 v 48.36914 H 89.275171 c -2.894864,0 -5.340648,0.97614 -7.255371,2.24534 v -42.59275 c 0,-4.48249 3.541342,-8.091772 8.023283,-8.02173 z"
       id="path26" /><path
       style="fill:#e01313;fill-opacity:1;stroke:none;stroke-width:4.48699;stroke-dasharray:none;stroke-opacity:1"
       d="m 148.50317,137.02715 c 1.01468,5.97574 11.07316,-1.17258 13.97745,-6.49275 2.57817,-4.72276 3.52082,-13.13947 0.36072,-17.49437 -0.82675,-1.13933 -1.63571,-2.14897 -2.42232,-3.03958 -6.87801,-7.7874 -12.04732,-6.47434 -12.45691,-3.18264 -2.23284,17.94437 -2.28792,13.5488 0.54106,30.20934 z"
       id="path24" /><path
       style="fill:#e01313;stroke:none;stroke-width:4.48699;stroke-dasharray:none;stroke-opacity:1;fill-opacity:1"
       d="m 64.837369,137.15944 c -1.014688,5.97574 -11.073165,-1.17258 -13.977459,-6.49275 -2.578169,-4.72276 -3.520816,-13.13947 -0.360711,-17.49437 0.826744,-1.13933 1.635703,-2.14897 2.422312,-3.03958 6.878015,-7.7874 12.047325,-6.47434 12.456915,-3.18264 2.232837,17.94437 2.287922,13.5488 -0.541057,30.20934 z"
       id="path23" /><path
       style="fill:none;stroke:#000000;stroke-width:4.48699;stroke-dasharray:none;stroke-opacity:1"
       d="m 67.272154,63.845422 c 0,0 0.95801,4.787623 7.304347,7.304348 6.346337,2.516725 14.13451,-10.093293 32.104269,-9.107892 17.96976,-0.985401 25.75793,11.624617 32.10427,9.107892 6.34633,-2.516725 7.30434,-7.304348 7.30434,-7.304348"
       id="path22" /><path
       style="fill:none;stroke:#000000;stroke-width:4.48699;stroke-dasharray:none;stroke-opacity:1"
       d="m 64.837369,137.15944 c -1.014688,5.97574 -11.073165,-1.17258 -13.977459,-6.49275 -2.578169,-4.72276 -3.520816,-13.13947 -0.360711,-17.49437 0.826744,-1.13933 1.635703,-2.14897 2.422312,-3.03958 6.878015,-7.7874 12.047325,-6.47434 12.456915,-3.18264 2.232837,17.94437 2.287922,13.5488 -0.541057,30.20934 z"
       id="path12" /><path
       id="path13"
       style="fill:none;stroke:#000000;stroke-width:4.48699;stroke-dasharray:none;stroke-opacity:1"
       d="m 148.52417,137.15944 c 1.01469,5.97574 11.07316,-1.17258 13.97746,-6.49275 2.57817,-4.72276 3.52081,-13.13947 0.36071,-17.49437 -8.05569,-11.10144 -14.4228,-9.89038 -14.87923,-6.22222 -2.23283,17.94437 -2.28792,13.5488 0.54106,30.20934 z m 16.19571,-18.80122 C 169.76909,73.119235 139.14339,48.331291 106.68077,46.302578 74.218149,48.331291 43.592447,73.119235 48.641657,118.35822"
       sodipodi:nodetypes="sssssccc" /><path
       id="rect29"
       style="fill:#a5a5a5;fill-opacity:0.554371;stroke:none;stroke-width:0.299782;stroke-dasharray:none;stroke-opacity:1"
       d="m 81.954687,96.04375 c -5.652138,8.03339 -3.625922,58.88188 0.992187,64.29374 4.61811,5.41186 26.142496,2.11667 26.142496,2.11667 -8.37583,-8.31348 -13.216076,-20.60774 -13.216111,-33.56901 -3.8e-5,-16.00073 7.356571,-30.725481 19.183801,-38.39765 0,0 -27.450235,-2.477138 -33.102373,5.55625 z"
       sodipodi:nodetypes="zzcscz" /><path
       id="path20"
       style="fill:#643724;stroke:#000000;stroke-width:0.2;stroke-dasharray:none;stroke-opacity:1;fill-opacity:1"
       d="M 90.043083 88.522762 C 83.201384 88.522762 77.623169 94.099939 77.623169 100.94164 L 77.623169 152.54469 C 77.623169 159.38639 83.201404 164.97953 90.043083 164.96306 L 135.8961 164.96306 L 135.8961 88.522762 L 90.043083 88.522762 z M 90.043083 92.91991 L 131.49998 92.91991 L 131.49998 141.28905 L 89.275171 141.28905 C 86.380307 141.28905 83.934523 142.26519 82.0198 143.53439 L 82.0198 100.94164 C 82.0198 96.45915 85.561142 92.849868 90.043083 92.91991 z M 89.275171 146.389 L 131.49998 146.389 L 131.49998 160.56591 L 90.043083 160.56591 C 85.560595 160.56591 81.837749 156.24705 82.0198 152.44651 C 82.170542 149.29958 83.994602 146.389 89.275171 146.389 z " /><rect
       style="fill:#ffda51;fill-opacity:1;stroke:none;stroke-width:0.230855;stroke-dasharray:none;stroke-opacity:1"
       id="rect28"
       width="5.2094707"
       height="49.146355"
       x="89.164581"
       y="92.405731" /></g></svg>
